<?xml version="1.0" encoding="UTF-8"?>
<svg  width="752pt" height="752pt" version="1.1" viewBox="0 0 752 752" xmlns="http://www.w3.org/2000/svg">
 <path fill="#fff" d="m529.49 327.41c-16.574-52.473-81.551-112.9-105.8-134.12v-9.9453c0-7.3164-3.9062-14.078-10.242-17.738-6.3359-3.6562-14.145-3.6562-20.48 0-6.3398 3.6602-10.242 10.422-10.242 17.738v270.27c-24.16-9.2656-50.508-11.227-75.773-5.6367-55.93 11.32-95.238 51.148-87.566 89.508 7.6719 38.359 59.387 59.906 115.55 48.637 52.094-10.512 89.98-45.938 88.703-81.551v-7.7656-225l2.0352 0.66406c111.25 34.477 67.578 137.34 67.578 137.34-14.207 27.656 6.1562 25.621 6.1562 25.621 50.535-63.699 30.074-108.03 30.074-108.03z"/>
</svg>
